<svg xmlns:xlink="http://www.w3.org/1999/xlink" xmlns="http://www.w3.org/2000/svg" width="20" height="14" viewBox="0 0 20 14" fill="none">
<path d="M4.44444 3.66732H15.5556V10.334H4.44444V3.66732ZM17.7778 0.333984C19.0035 0.333984 20 1.32878 20 2.55621V5.33398C19.0799 5.33398 18.3333 6.08051 18.3333 7.00065C18.3333 7.92079 19.0799 8.66732 20 8.66732V11.4451C20 12.6708 19.0035 13.6673 17.7778 13.6673H2.22222C0.994792 13.6673 0 12.6708 0 11.4451V8.66732C0.920486 8.66732 1.66667 7.92079 1.66667 7.00065C1.66667 6.08051 0.920486 5.33398 0 5.33398V2.55621C0 1.32878 0.994792 0.333984 2.22222 0.333984H17.7778ZM3.33333 10.334C3.33333 10.9486 3.82986 11.4451 4.44444 11.4451H15.5556C16.1701 11.4451 16.6667 10.9486 16.6667 10.334V3.66732C16.6667 3.05273 16.1701 2.55621 15.5556 2.55621H4.44444C3.82986 2.55621 3.33333 3.05273 3.33333 3.66732V10.334Z" fill="url(#paint0_linear_260_14488)"/>
<defs>
<linearGradient id="paint0_linear_260_14488" x1="-3.28289" y1="4.51994" x2="7.60079" y2="-11.7442" gradientUnits="userSpaceOnUse">
<stop offset="0.048032" stop-color="#A79EFE"/>
<stop offset="0.321613" stop-color="#B1A4FA"/>
<stop offset="0.594259" stop-color="#F2C9CD"/>
<stop offset="0.765036" stop-color="#E1BFCC"/>
<stop offset="1" stop-color="#9792C8"/>
</linearGradient>
</defs>
</svg>