<svg xmlns:xlink="http://www.w3.org/1999/xlink" xmlns="http://www.w3.org/2000/svg" width="20" height="18" viewBox="0 0 20 18" fill="none">
<path d="M5.94141 0.490754C6.32422 0.837239 6.35547 1.42982 6.00781 1.81497L3.19687 4.94154C3.02461 5.12904 2.78164 5.24232 2.52461 5.21497C2.26758 5.25794 2.01914 5.15638 1.83711 4.94154L0.27457 3.37904C-0.0915234 3.047 -0.0915234 2.45325 0.27457 2.08724C0.640625 1.72122 1.23438 1.72122 1.60039 2.08724L2.46406 2.94935L4.61719 0.560286C4.96094 0.17552 5.55469 0.14427 5.94141 0.490754ZM5.94141 6.74232C6.32422 7.08607 6.35547 7.67982 6.00781 8.06654L3.19687 11.1915C3.02461 11.379 2.78164 11.4923 2.52461 11.465C2.26758 11.5079 2.01914 11.4064 1.83711 11.1915L0.27457 9.62904C-0.0915234 9.29701 -0.0915234 8.70325 0.27457 8.33607C0.640625 7.97279 1.23438 7.97279 1.60039 8.33607L2.46406 9.19935L4.61719 6.80872C4.96094 6.42591 5.55469 6.39466 5.94141 6.74232ZM8.75 2.75013C8.75 2.0599 9.30859 1.50013 10 1.50013H18.75C19.4414 1.50013 20 2.0599 20 2.75013C20 3.44154 19.4414 4.00013 18.75 4.00013H10C9.30859 4.00013 8.75 3.44154 8.75 2.75013ZM8.75 9.00013C8.75 8.30872 9.30859 7.75013 10 7.75013H18.75C19.4414 7.75013 20 8.30872 20 9.00013C20 9.69154 19.4414 10.2501 18.75 10.2501H10C9.30859 10.2501 8.75 9.69154 8.75 9.00013ZM6.25 15.2501C6.25 14.5587 6.80859 14.0001 7.5 14.0001H18.75C19.4414 14.0001 20 14.5587 20 15.2501C20 15.9415 19.4414 16.5001 18.75 16.5001H7.5C6.80859 16.5001 6.25 15.9415 6.25 15.2501ZM0 15.2501C0 14.215 0.839453 13.3751 1.875 13.3751C2.91055 13.3751 3.75 14.215 3.75 15.2501C3.75 16.2853 2.91055 17.1251 1.875 17.1251C0.839453 17.1251 0 16.2853 0 15.2501Z" fill="url(#paint0_linear_260_14483)"/>
<defs>
<linearGradient id="paint0_linear_260_14483" x1="-3.28289" y1="5.54789" x2="11.415" y2="-11.8062" gradientUnits="userSpaceOnUse">
<stop offset="0.048032" stop-color="#A79EFE"/>
<stop offset="0.321613" stop-color="#B1A4FA"/>
<stop offset="0.594259" stop-color="#F2C9CD"/>
<stop offset="0.765036" stop-color="#E1BFCC"/>
<stop offset="1" stop-color="#9792C8"/>
</linearGradient>
</defs>
</svg>