<?xml version="1.0" standalone="no"?>
<!DOCTYPE svg PUBLIC "-//W3C//DTD SVG 20010904//EN"
 "http://www.w3.org/TR/2001/REC-SVG-20010904/DTD/svg10.dtd">
<svg version="1.0" xmlns="http://www.w3.org/2000/svg"
 width="512.000000pt" height="512.000000pt" viewBox="0 0 512.000000 512.000000"
 preserveAspectRatio="xMidYMid meet">
<metadata>
Created by potrace 1.14, written by Peter Selinger 2001-2017
</metadata>
<g transform="translate(0.000000,512.000000) scale(0.100000,-0.100000)"
fill="#000000" stroke="none">
<path d="M3590 5113 c-60 -10 -160 -57 -217 -101 -96 -73 -162 -173 -188 -287
-12 -52 -14 -98 -20 -448 -1 -98 -4 -180 -7 -182 -3 -3 -20 1 -39 9 -45 19
-213 63 -269 72 -25 3 -70 10 -100 15 -58 8 -378 5 -420 -5 -13 -3 -42 -8 -64
-12 -75 -11 -221 -53 -311 -89 -512 -206 -883 -647 -996 -1181 -41 -197 -46
-439 -13 -609 2 -11 7 -33 9 -50 3 -16 17 -72 31 -123 15 -51 25 -95 23 -97
-2 -2 -31 -6 -64 -10 -33 -4 -71 -8 -85 -10 -14 -2 -63 -9 -110 -15 -47 -6
-101 -13 -120 -15 -19 -3 -78 -9 -130 -15 -192 -21 -316 -90 -409 -225 -63
-92 -84 -162 -85 -275 -1 -107 3 -134 32 -206 60 -150 190 -262 353 -303 62
-16 73 -22 76 -42 31 -203 199 -381 397 -421 36 -7 57 -16 60 -27 2 -9 10 -41
17 -71 46 -211 239 -372 460 -387 201 -13 373 78 480 255 65 107 71 163 82
755 1 32 -1 32 73 7 63 -22 163 -49 204 -56 14 -2 34 -6 45 -8 90 -20 335 -26
457 -13 54 6 167 27 223 41 6 2 24 6 40 10 74 19 209 73 308 123 96 49 259
156 307 202 9 9 39 37 66 62 67 63 122 123 172 189 23 30 46 60 50 65 25 31
110 180 137 240 61 133 114 305 131 418 2 18 8 59 13 92 18 126 3 412 -29 535
-5 19 -11 46 -14 60 -2 14 -12 47 -21 73 -18 54 -16 60 23 63 25 2 311 39 377
49 17 2 64 7 105 11 231 20 411 163 469 371 54 195 -2 384 -154 526 -60 56
-197 118 -269 122 -12 0 -22 21 -35 79 -34 144 -149 281 -291 344 -37 16 -128
41 -133 36 -9 -9 -24 22 -35 74 -20 88 -62 162 -133 232 -78 77 -81 79 -142
108 -91 43 -225 62 -317 45z m215 -243 c108 -52 163 -141 169 -270 5 -123 41
-157 168 -164 174 -10 284 -119 292 -290 6 -128 45 -166 170 -170 174 -6 291
-123 290 -291 0 -167 -112 -276 -298 -290 -64 -6 -149 -16 -166 -20 -8 -2 -40
-6 -70 -10 -30 -3 -71 -8 -90 -10 -19 -2 -75 -9 -125 -15 -49 -7 -99 -13 -110
-14 -18 -3 -47 35 -99 129 -55 99 -235 295 -362 394 -43 34 -84 65 -89 69 -6
5 -32 21 -58 36 l-48 29 6 306 c3 168 8 325 10 348 20 195 235 318 410 233z
m-895 -936 c115 -29 260 -87 357 -142 61 -35 61 -35 58 -76 -10 -105 -65 -293
-127 -425 -114 -248 -282 -447 -512 -609 -33 -23 -63 -42 -67 -42 -4 0 5 26
21 58 62 126 101 242 136 407 27 125 26 397 -2 565 -8 52 -63 241 -79 274
l-14 28 62 -6 c34 -3 109 -17 167 -32z m-954 -136 c53 -41 165 -152 218 -218
159 -195 256 -398 307 -640 20 -94 39 -257 31 -265 -3 -2 -32 35 -65 82 -57
82 -209 244 -287 307 -106 85 -264 178 -386 227 -90 36 -255 85 -320 95 l-44
6 22 32 c42 60 244 252 318 302 83 57 149 94 166 94 6 0 24 -10 40 -22z m1947
-786 c47 -139 67 -258 72 -410 l3 -122 -41 -19 c-258 -116 -628 -144 -932 -69
-133 32 -355 120 -355 139 0 5 21 9 48 10 26 0 56 2 67 4 11 2 41 6 68 9 191
21 478 133 649 252 119 84 265 219 333 307 36 49 40 45 88 -101z m-1986 -246
c152 -22 317 -72 448 -136 83 -40 83 -39 -5 -44 -245 -15 -532 -113 -746 -256
-122 -81 -210 -159 -316 -278 l-38 -42 -16 38 c-20 48 -71 236 -78 287 -3 22
-8 51 -11 65 -5 26 -9 166 -6 231 1 36 2 37 74 62 76 27 129 42 186 52 19 3
37 8 41 10 3 2 40 7 81 11 40 3 75 8 77 9 5 5 267 -3 309 -9z m505 -367 c-36
-78 -87 -220 -96 -265 -2 -10 -9 -37 -14 -59 -41 -157 -47 -443 -12 -600 5
-22 12 -56 15 -75 3 -19 21 -79 39 -132 36 -110 39 -106 -55 -87 -30 6 -65 13
-79 15 -103 20 -330 119 -425 184 l-43 29 15 83 c35 189 136 425 253 590 57
79 160 193 245 269 47 41 187 141 192 136 2 -2 -14 -42 -35 -88z m240 -68
c236 -316 593 -528 1001 -596 l38 -6 -37 -47 c-112 -140 -271 -271 -439 -362
l-55 -30 -62 52 c-232 191 -415 472 -492 756 -28 103 -45 201 -50 300 l-4 67
21 -29 c12 -16 48 -64 79 -105z m-1521 -580 c114 -206 331 -432 539 -561 30
-19 58 -38 61 -42 3 -5 4 -34 3 -66 -1 -31 -5 -167 -8 -302 -4 -135 -9 -265
-12 -290 -28 -226 -306 -330 -478 -179 -64 56 -96 128 -100 221 -5 127 -36
157 -171 168 -98 8 -158 34 -210 91 -52 58 -74 113 -80 204 -7 118 -43 157
-146 161 -32 1 -73 6 -91 9 -170 37 -269 227 -203 390 13 32 39 73 57 92 42
43 119 81 183 88 28 3 86 10 130 16 44 5 96 12 115 14 19 2 69 9 110 14 41 6
104 13 140 17 36 3 67 8 70 11 2 2 17 3 33 1 23 -2 34 -13 58 -57z"/>
</g>
</svg>
